<?xml version="1.0" standalone="no"?>
<!DOCTYPE svg PUBLIC "-//W3C//DTD SVG 20010904//EN"
 "http://www.w3.org/TR/2001/REC-SVG-20010904/DTD/svg10.dtd">
<svg version="1.0" xmlns="http://www.w3.org/2000/svg"
 width="3104.000000pt" height="3104.000000pt" viewBox="0 0 3104.000000 3104.000000"
 preserveAspectRatio="xMidYMid meet">
<metadata>
Created by potrace 1.14, written by Peter Selinger 2001-2017
</metadata>
<g transform="translate(0.000000,3104.000000) scale(0.100000,-0.100000)"
fill="#000000" stroke="none">
<path d="M20008 19432 c-15 -3 -17 -327 -17 -3873 0 -3775 1 -3869 19 -3879
12 -6 21 -7 25 0 4 6 15 6 30 0 16 -6 25 -6 25 0 0 5 7 7 15 4 22 -9 155 -10
155 -2 0 4 7 5 15 2 21 -9 105 -10 105 -2 0 3 12 3 27 -1 16 -4 45 -4 66 -1
20 4 40 3 43 -1 3 -5 14 -5 24 1 13 7 21 7 25 0 4 -7 12 -7 24 0 10 5 21 7 24
4 10 -10 42 -11 59 -3 10 6 19 5 23 -1 4 -6 15 -6 30 0 14 5 25 6 25 2 0 -8
134 -6 156 2 8 3 14 2 14 -2 0 -9 64 -7 79 2 5 4 12 2 16 -4 4 -7 12 -7 24 0
10 5 21 7 24 4 8 -9 157 -10 157 -2 0 4 7 5 15 2 22 -9 105 -10 105 -2 0 4 6
5 14 2 21 -8 136 -10 136 -2 0 3 8 4 19 1 18 -5 19 18 19 829 1 458 1 844 2
858 0 15 18 44 48 76 26 27 85 92 132 144 47 51 106 116 132 144 26 28 56 62
67 74 10 13 56 63 101 112 45 49 93 102 106 117 21 24 26 26 34 13 9 -13 211
-349 243 -405 7 -11 27 -43 45 -72 17 -30 32 -56 32 -60 0 -3 11 -21 25 -39
14 -18 25 -35 25 -39 0 -3 12 -24 27 -48 15 -23 31 -51 37 -62 33 -61 102
-170 108 -173 5 -2 8 -8 8 -13 0 -5 37 -71 83 -146 45 -76 87 -146 92 -155 6
-10 42 -70 80 -135 39 -64 75 -125 80 -134 6 -10 35 -58 65 -109 30 -50 64
-106 75 -125 11 -19 37 -62 58 -96 20 -34 37 -66 37 -70 0 -5 5 -9 10 -9 6 0
10 -4 10 -9 0 -5 47 -89 105 -185 58 -97 105 -181 105 -186 0 -6 4 -10 9 -10
5 0 14 -13 21 -29 23 -57 40 -64 150 -63 55 0 105 4 110 7 6 3 10 2 10 -2 0
-9 63 -8 79 1 5 4 12 2 16 -4 4 -7 12 -7 24 0 10 5 21 7 24 4 8 -9 157 -10
157 -2 0 4 7 5 15 2 21 -9 105 -10 105 -2 0 3 12 3 27 -1 16 -4 45 -4 66 -1
20 4 40 3 43 -1 3 -5 14 -5 24 1 13 7 21 7 25 0 4 -7 12 -7 24 0 10 5 21 7 24
4 10 -10 42 -11 59 -3 10 6 19 5 23 -1 4 -6 15 -6 30 0 14 5 25 6 25 2 0 -8
134 -6 156 2 8 3 14 2 14 -2 0 -9 64 -7 79 2 5 4 12 2 16 -4 4 -7 12 -7 24 0
10 5 21 7 24 4 8 -9 157 -10 157 -2 0 4 7 5 15 2 21 -9 105 -10 105 -2 0 3 12
3 26 -1 30 -8 110 -2 98 8 -5 3 -20 26 -34 51 -13 25 -28 50 -33 55 -4 6 -50
80 -100 165 -51 85 -104 173 -118 195 -13 22 -33 57 -44 78 -11 20 -23 37 -27
37 -5 0 -8 4 -8 9 0 8 -118 209 -139 235 -4 6 -19 31 -32 56 -13 25 -26 47
-29 50 -3 3 -19 28 -34 55 -16 28 -36 58 -44 68 -8 9 -11 17 -6 17 5 0 4 4 -2
8 -6 4 -30 41 -55 82 -24 41 -46 77 -49 80 -3 3 -11 16 -18 30 -13 25 -24 44
-55 93 -43 69 -52 82 -52 87 0 3 -16 30 -36 60 -19 30 -55 89 -79 130 -25 41
-48 76 -52 78 -5 2 -8 8 -8 13 0 5 -22 46 -50 90 -27 44 -50 82 -50 84 0 2
-12 23 -27 47 -47 73 -53 82 -70 116 -9 17 -20 32 -25 32 -4 0 -8 6 -8 13 0 7
-15 35 -33 62 -18 28 -45 73 -61 100 -16 28 -44 73 -62 102 -19 28 -34 55 -34
59 0 4 -10 21 -23 38 -12 17 -31 48 -42 69 -11 20 -22 37 -25 37 -3 0 -11 15
-19 33 -8 17 -17 34 -21 37 -3 3 -21 32 -40 65 -19 33 -36 62 -39 65 -3 3 -17
25 -30 50 -14 25 -32 56 -42 70 -29 42 -99 162 -99 169 0 5 -9 16 -20 26 -11
10 -20 22 -20 26 0 4 -27 53 -61 109 -50 83 -58 102 -47 114 7 7 47 51 88 97
41 45 92 101 113 122 20 21 37 41 37 43 0 3 17 22 38 43 20 21 58 62 83 92 26
30 62 70 80 90 57 61 241 266 314 348 26 30 57 64 68 76 12 12 45 47 72 79 28
32 64 72 80 90 36 38 166 182 226 251 24 27 60 66 79 87 19 20 46 49 59 65 24
29 183 205 211 234 8 9 38 42 65 73 28 31 66 74 85 95 19 20 53 58 75 82 22
25 72 81 112 125 93 102 123 138 123 144 0 3 -425 4 -944 3 l-944 -2 -49 -52
c-26 -28 -68 -73 -93 -99 -25 -26 -94 -101 -155 -165 -60 -65 -128 -137 -150
-160 -88 -93 -176 -187 -295 -315 -69 -73 -151 -160 -182 -193 -32 -32 -58
-60 -58 -62 0 -1 -33 -36 -72 -78 -40 -41 -102 -106 -137 -144 -89 -95 -265
-284 -331 -353 -50 -53 -148 -158 -309 -330 -60 -64 -61 -64 -62 -35 0 17 0
956 -1 2088 l0 2057 -22 1 c-83 2 -1486 3 -1498 1z"/>
<path d="M26139 19301 c-1 -3 -2 -255 -2 -559 -2 -483 0 -553 13 -556 8 -2
147 -4 308 -4 l292 0 0 124 c1 68 1 288 1 489 0 201 0 399 -1 440 l0 74 -305
-1 c-168 0 -305 -3 -306 -7z"/>
<path d="M28861 18056 c-2 -396 -3 -407 -41 -529 -40 -129 -131 -250 -236
-315 -70 -44 -184 -82 -258 -87 -33 -2 -63 -5 -66 -6 -21 -6 -97 -3 -107 4 -7
5 -13 6 -13 1 0 -13 -283 -11 -292 1 -4 6 -8 -1 -9 -15 -1 -29 -1 -550 0 -565
1 -8 162 -11 507 -10 388 0 508 -3 511 -12 3 -7 6 -830 7 -1830 2 -1000 5
-1829 9 -1843 5 -22 20 -115 34 -210 3 -19 9 -42 13 -50 4 -8 13 -40 20 -70
25 -104 131 -332 177 -378 7 -7 13 -17 13 -22 0 -24 224 -250 248 -250 5 0 18
-9 30 -21 21 -19 170 -98 240 -128 40 -16 116 -38 198 -56 112 -26 118 -26
259 -40 56 -6 268 -5 340 0 157 12 221 21 276 35 l35 10 0 281 0 281 -70 -8
c-39 -4 -89 -8 -112 -9 -23 -1 -45 -4 -50 -7 -14 -7 -291 -2 -354 6 -89 12
-113 16 -160 30 -142 43 -227 93 -314 185 -22 24 -46 49 -52 55 -42 43 -121
240 -138 341 -3 17 -7 41 -10 54 -3 13 -8 56 -12 95 -6 70 -12 3517 -6 3546 3
13 75 15 585 14 320 0 587 3 592 7 7 5 10 110 10 291 l0 283 -120 0 c-66 1
-126 4 -133 9 -6 4 -12 4 -12 -1 0 -4 -31 -8 -70 -8 -38 0 -70 2 -70 5 0 3 -9
6 -20 6 -11 0 -20 -3 -20 -6 0 -3 -70 -5 -155 -5 -85 0 -155 4 -155 9 0 5 -6
4 -12 -1 -7 -5 -51 -7 -98 -6 -47 2 -89 3 -95 3 -5 0 -57 -1 -113 -3 -60 -1
-106 2 -110 8 -3 5 -6 291 -7 635 l0 625 -306 1 -307 2 -1 -332z"/>
<path d="M12337 17394 c-1 -1 -54 -5 -117 -8 -63 -3 -132 -9 -152 -11 -21 -3
-55 -7 -75 -10 -21 -3 -60 -8 -87 -11 -26 -4 -105 -19 -175 -35 -162 -37 -154
-35 -236 -61 -38 -12 -72 -23 -75 -23 -84 -22 -393 -160 -521 -232 -59 -34
-222 -136 -239 -150 -8 -6 -45 -34 -81 -60 -213 -155 -460 -404 -609 -615 -18
-27 -37 -48 -41 -48 -4 0 -10 -9 -14 -19 -3 -11 -27 -53 -53 -93 -70 -109 -68
-107 -113 -193 -22 -44 -44 -87 -49 -95 -26 -46 -108 -256 -125 -320 -1 -3 -5
-12 -8 -20 -12 -28 -56 -191 -61 -225 -2 -11 -6 -29 -9 -40 -4 -11 -9 -36 -11
-55 -3 -19 -8 -46 -11 -60 -3 -14 -7 -47 -10 -75 -3 -27 -8 -61 -10 -75 -18
-103 -25 -507 -11 -665 7 -89 41 -330 46 -330 2 0 9 -33 14 -65 5 -32 35 -150
43 -170 3 -8 7 -19 8 -25 0 -5 4 -17 7 -25 3 -8 16 -44 28 -80 11 -36 25 -75
31 -87 5 -13 13 -33 18 -45 5 -13 19 -44 30 -71 11 -26 20 -49 21 -52 2 -11
94 -180 121 -223 16 -26 32 -55 35 -64 4 -10 10 -18 15 -18 5 0 9 -5 9 -11 0
-9 43 -77 72 -114 4 -5 32 -42 61 -81 89 -121 136 -174 272 -309 140 -139 159
-157 275 -244 41 -31 77 -58 80 -61 15 -15 71 -50 80 -50 5 0 10 -4 10 -10 0
-5 5 -10 10 -10 6 0 16 -5 23 -10 60 -50 324 -189 487 -256 133 -54 316 -115
390 -129 8 -2 35 -8 60 -15 25 -7 54 -13 65 -15 11 -1 34 -5 50 -8 73 -16 114
-22 200 -32 28 -4 61 -8 75 -10 92 -15 429 -24 437 -12 2 4 10 4 16 0 10 -6
53 -8 60 -3 1 1 31 3 67 5 122 7 341 35 420 55 19 5 46 11 60 14 14 3 36 7 50
10 14 3 39 9 55 12 17 3 35 9 40 12 6 4 15 7 20 8 59 10 278 84 283 97 2 4 10
7 17 7 17 0 158 63 255 114 199 104 440 268 588 401 57 51 235 230 275 276 37
44 52 62 97 119 14 17 35 44 47 58 13 15 23 31 23 35 0 5 6 15 13 22 23 27 33
40 83 120 89 141 170 291 166 308 -1 4 3 7 10 7 6 0 8 3 5 7 -4 3 -3 11 2 17
5 6 23 47 41 91 17 44 36 89 40 100 21 48 61 181 63 208 1 9 6 17 11 17 5 0 7
2 4 5 -3 3 3 38 13 78 19 69 24 93 35 162 2 17 6 41 9 55 4 24 11 81 21 165
28 261 17 638 -28 864 -5 30 -12 64 -13 75 -3 19 -18 92 -30 141 -3 11 -7 30
-9 42 -3 12 -10 31 -16 42 -6 12 -8 21 -6 21 3 0 1 12 -5 28 -6 15 -12 34 -14
42 -2 8 -18 53 -35 100 -18 47 -35 94 -38 104 -17 60 -188 381 -224 422 -10
11 -18 23 -18 27 0 12 -76 118 -167 232 -351 442 -867 795 -1413 967 -132 42
-358 94 -443 103 -18 2 -32 4 -32 5 0 1 -18 3 -40 5 -22 2 -60 6 -85 9 -110
13 -443 28 -453 20z m178 -1385 c50 -2 104 -6 120 -10 17 -4 50 -10 75 -13 25
-3 62 -10 83 -16 20 -5 52 -14 70 -18 18 -5 41 -14 52 -19 11 -6 23 -12 27
-12 44 -9 190 -81 251 -123 114 -80 262 -219 309 -289 9 -13 26 -34 37 -46 12
-13 18 -23 14 -23 -4 0 -3 -4 3 -8 13 -9 92 -142 126 -212 14 -30 40 -98 58
-150 18 -52 35 -102 38 -110 3 -8 4 -19 3 -24 -1 -4 5 -31 13 -60 24 -84 40
-247 40 -401 0 -112 -12 -283 -20 -296 -3 -5 -7 -26 -9 -46 -4 -46 -13 -88
-25 -128 -5 -16 -11 -41 -14 -55 -6 -38 -72 -205 -108 -274 -30 -57 -114 -189
-141 -222 -7 -8 -22 -26 -34 -39 -13 -13 -23 -26 -23 -29 0 -7 -95 -99 -155
-151 -124 -105 -354 -223 -486 -249 -13 -2 -44 -9 -69 -14 -87 -20 -167 -27
-325 -27 -148 1 -201 4 -280 20 -16 4 -39 8 -50 9 -11 2 -27 6 -35 8 -8 3 -49
15 -90 28 -103 32 -286 123 -344 171 -6 5 -29 23 -51 40 -53 41 -109 94 -170
162 -77 85 -97 110 -108 134 -6 13 -14 23 -19 23 -4 0 -8 7 -8 15 0 8 -4 15
-10 15 -5 0 -10 6 -10 14 0 8 -3 16 -7 18 -8 3 -103 191 -103 201 0 3 -5 18
-12 34 -6 15 -12 31 -13 36 -2 4 -4 9 -5 12 -1 3 -3 8 -4 13 -2 4 -8 27 -16
52 -7 25 -15 51 -16 59 -1 7 -8 34 -14 60 -6 25 -13 62 -15 81 -2 19 -8 53
-12 75 -10 57 -10 476 1 500 5 11 8 27 7 35 -1 13 30 172 43 220 13 46 49 144
68 186 12 27 22 51 23 54 4 16 49 96 57 101 5 3 10 10 10 15 1 13 44 80 92
144 38 51 164 182 232 241 123 107 365 224 529 255 11 2 31 6 45 9 60 12 90
15 175 21 50 4 92 8 94 10 2 2 7 2 10 0 3 -2 47 -5 96 -7z"/>
<path d="M19107 17334 c-1 -1 -58 -5 -127 -8 -133 -7 -165 -10 -220 -21 -19
-4 -48 -8 -64 -10 -15 -3 -35 -7 -45 -9 -9 -3 -30 -8 -48 -11 -18 -3 -43 -9
-57 -15 -15 -5 -26 -7 -26 -4 0 4 -7 1 -15 -6 -8 -7 -15 -10 -15 -6 0 4 -13 0
-30 -9 -16 -9 -30 -13 -30 -10 0 6 -132 -45 -190 -74 -45 -22 -126 -67 -130
-71 -3 -3 -21 -17 -40 -30 -65 -45 -156 -132 -216 -207 -22 -26 -42 -49 -46
-51 -5 -2 -8 -10 -8 -18 0 -8 -3 -14 -8 -14 -4 0 -12 -8 -17 -19 -6 -10 -29
-52 -52 -92 -23 -41 -42 -78 -42 -83 1 -5 -3 -12 -8 -15 -5 -3 -17 -25 -28
-49 -10 -24 -21 -45 -24 -47 -3 -1 -6 181 -6 406 0 403 0 409 -20 410 -16 0
-1306 0 -1392 -1 l-21 0 1 -1785 c1 -982 -2 -1785 -6 -1785 -5 0 -5 -5 -2 -10
10 -16 11 -150 2 -150 -5 0 -5 -5 -2 -10 10 -15 11 -790 2 -790 -5 0 -5 -5 -2
-10 10 -16 11 -150 2 -150 -5 0 -5 -5 -2 -10 4 -6 7 -207 8 -448 2 -325 5
-437 14 -437 6 0 15 -3 18 -7 4 -4 15 -3 25 2 10 5 20 7 23 4 8 -9 157 -10
157 -2 0 4 7 5 15 2 21 -9 105 -10 105 -2 0 3 12 3 27 -1 16 -4 45 -4 66 -1
20 4 40 3 43 -1 3 -5 14 -5 24 1 13 7 21 7 25 0 4 -7 12 -7 24 0 10 5 21 7 24
4 10 -10 42 -11 59 -3 10 6 19 5 23 -1 4 -6 15 -6 30 0 14 5 25 6 25 2 0 -8
134 -6 156 2 8 3 14 2 14 -2 0 -9 64 -7 79 2 5 4 12 2 16 -4 4 -7 12 -7 24 0
10 5 21 7 24 4 8 -9 157 -10 157 -2 0 4 7 5 15 2 22 -9 105 -10 105 -2 0 4 6
5 14 2 22 -8 136 -10 136 -2 0 4 11 3 24 -2 17 -6 27 -5 34 3 5 7 9 106 8 225
-1 133 3 214 9 216 6 3 6 5 0 5 -7 1 -10 25 -8 64 2 34 3 69 3 77 -5 137 -4
239 2 257 4 12 4 24 -1 27 -4 3 -6 27 -4 53 2 26 4 55 3 63 -5 132 -3 399 3
413 4 9 4 17 -1 17 -5 0 -7 26 -5 58 2 31 4 64 3 72 -5 117 -4 240 2 257 4 12
4 24 -1 27 -4 3 -6 27 -4 53 2 26 4 55 3 63 -5 132 -3 399 3 413 4 9 4 17 -1
17 -5 0 -7 26 -5 58 2 31 4 64 3 72 -5 117 -4 240 2 257 4 12 4 24 -1 27 -4 3
-6 27 -4 53 3 26 4 57 3 68 -6 79 2 288 14 352 2 10 7 38 11 63 4 25 9 54 12
65 2 11 6 30 9 42 2 12 9 35 15 50 6 16 13 39 15 52 9 48 75 185 125 259 16
24 29 45 29 48 0 6 31 40 123 134 42 44 77 77 77 74 0 -3 7 2 16 10 43 44 215
140 309 174 65 23 177 54 207 57 18 2 44 6 58 10 14 3 79 8 145 11 66 3 137 6
158 7 20 1 37 -2 37 -6 0 -5 5 -5 12 -1 14 9 238 11 238 3 0 -4 15 -4 33 0 40
8 69 7 83 -2 9 -5 12 167 12 663 l0 670 -21 1 c-71 1 -329 4 -330 3z"/>
<path d="M134 17272 c-22 -3 -24 1 126 -427 28 -82 53 -154 54 -160 2 -5 6
-17 9 -25 11 -28 79 -225 81 -235 2 -5 6 -17 9 -25 5 -14 30 -89 32 -100 1 -3
5 -12 8 -20 11 -28 69 -195 74 -215 5 -22 20 -59 34 -87 5 -10 9 -26 9 -36 0
-10 3 -22 7 -26 4 -3 8 -12 9 -19 2 -11 79 -235 91 -267 4 -8 7 -17 8 -20 12
-39 43 -130 80 -235 42 -120 73 -208 185 -540 23 -66 45 -129 50 -140 12 -28
72 -206 74 -219 1 -6 4 -15 7 -21 4 -5 21 -55 38 -110 18 -55 37 -110 42 -122
24 -59 28 -69 32 -88 4 -16 134 -394 138 -402 1 -2 2 -7 3 -12 0 -5 4 -13 9
-17 4 -4 7 -18 7 -31 0 -13 4 -23 8 -23 4 0 8 -9 9 -19 1 -10 10 -41 21 -68
17 -42 89 -250 96 -278 2 -5 8 -23 14 -38 7 -16 12 -33 12 -38 0 -5 4 -17 10
-27 5 -9 25 -64 44 -122 19 -58 58 -172 86 -255 29 -82 83 -240 120 -350 38
-110 96 -278 129 -372 33 -95 58 -173 54 -173 -3 0 0 -6 6 -13 6 -8 25 -57 41
-110 17 -53 36 -99 41 -103 14 -8 99 -11 99 -2 0 3 12 3 27 -1 16 -4 45 -4 66
-1 20 4 40 3 43 -1 3 -5 14 -5 24 1 13 7 21 7 25 0 4 -7 12 -7 24 0 10 5 21 7
24 4 10 -10 42 -11 59 -3 10 6 19 5 23 -1 4 -6 15 -6 30 0 14 5 25 6 25 1 0
-4 20 -5 45 -1 25 4 48 3 51 -1 2 -5 16 -4 29 1 15 6 27 6 30 0 4 -6 13 -7 24
-1 10 6 23 6 31 1 8 -5 19 -5 25 0 6 5 17 5 25 0 8 -5 21 -5 30 0 9 5 22 5 29
1 7 -5 30 -5 52 -1 22 4 42 4 45 -1 2 -4 16 -4 29 1 15 6 27 6 30 -1 4 -5 11
-7 16 -3 13 8 79 11 79 4 0 -7 65 -4 77 3 5 3 15 2 23 -3 7 -4 24 -4 36 0 14
6 26 5 29 0 3 -6 15 -6 30 0 13 5 27 6 29 1 3 -4 18 -6 34 -3 32 4 41 23 97
182 14 41 28 82 32 90 3 8 7 20 9 25 1 6 14 42 29 80 15 39 29 77 31 85 4 17
72 206 85 235 12 27 79 213 90 250 5 17 13 39 18 50 14 30 24 58 28 80 2 11 8
24 13 29 6 6 10 16 10 24 0 8 6 28 14 45 7 18 21 55 31 82 9 28 19 57 22 65 4
8 7 17 8 20 1 3 7 18 13 33 7 16 12 34 12 42 0 8 4 16 9 19 4 3 11 18 14 33 3
16 14 46 23 68 10 22 18 42 19 45 3 14 38 116 44 125 3 6 6 15 7 20 2 16 73
207 83 225 5 9 12 31 16 50 4 19 11 41 15 50 14 27 48 118 188 510 39 107 76
209 83 225 7 17 13 35 14 41 3 10 39 113 77 214 5 14 9 26 9 28 -1 1 6 19 15
40 8 20 25 64 36 97 12 33 25 71 31 85 6 14 11 28 12 33 2 4 4 9 5 12 1 3 3 8
4 13 5 22 82 222 86 222 3 0 13 -24 23 -52 17 -51 37 -106 77 -213 10 -27 33
-90 50 -140 17 -49 35 -99 40 -110 5 -11 14 -38 21 -60 7 -22 17 -44 21 -49 4
-6 8 -19 8 -31 0 -12 4 -25 10 -31 5 -5 11 -18 13 -29 2 -11 10 -33 17 -50 6
-16 16 -41 20 -55 4 -14 25 -70 45 -125 20 -55 42 -118 50 -140 29 -86 95
-266 105 -285 6 -11 9 -20 6 -20 -3 0 2 -17 11 -37 8 -21 28 -74 44 -118 15
-44 42 -118 59 -165 17 -47 38 -105 46 -130 8 -25 19 -54 24 -65 11 -25 151
-416 154 -430 1 -5 4 -14 7 -20 4 -5 12 -28 19 -50 7 -22 17 -46 23 -52 5 -7
7 -13 3 -13 -3 0 3 -23 15 -52 11 -28 31 -81 44 -117 12 -36 37 -104 55 -151
17 -47 33 -92 35 -100 3 -13 30 -87 81 -225 8 -22 16 -44 18 -50 2 -5 6 -17 9
-25 15 -40 49 -136 52 -145 1 -5 5 -17 8 -25 4 -8 22 -58 41 -110 23 -64 39
-95 49 -95 9 0 19 -3 23 -7 3 -4 15 -3 25 2 11 6 20 6 24 1 3 -6 17 -6 35 -1
18 5 32 5 35 -1 4 -5 14 -5 25 1 13 7 21 7 25 0 4 -7 12 -7 24 0 10 5 21 7 24
4 10 -10 42 -11 59 -3 10 6 19 5 23 -1 4 -6 15 -6 30 0 14 5 25 6 25 1 0 -4
20 -5 45 -1 25 4 48 3 51 -1 2 -5 16 -4 29 1 15 6 27 6 30 0 4 -6 13 -7 24 -1
10 6 23 6 31 1 8 -5 19 -5 25 0 6 5 17 5 25 0 8 -5 21 -5 30 0 9 5 22 5 29 1
7 -5 30 -5 52 -1 22 4 42 4 45 -1 2 -4 16 -4 29 1 15 6 27 6 30 -1 4 -5 11 -7
16 -3 13 8 79 11 79 4 0 -7 65 -4 77 3 5 3 15 2 23 -3 7 -4 24 -4 36 0 14 6
26 5 29 0 3 -6 15 -6 30 0 15 6 27 6 30 -1 4 -5 11 -7 16 -3 14 8 79 11 79 3
0 -11 57 3 57 14 1 7 24 77 53 157 29 80 55 156 57 170 3 14 9 30 14 35 4 6
10 22 12 35 3 14 14 46 26 73 11 26 20 48 19 50 -3 5 35 113 45 125 5 6 7 12
4 12 -3 0 13 51 35 113 22 61 41 117 42 122 3 10 9 28 29 80 7 17 12 32 12 35
1 3 8 28 18 55 9 28 17 53 17 58 0 4 7 21 15 37 9 17 13 30 9 30 -4 0 -2 6 3
13 8 9 33 73 38 97 5 24 30 97 35 105 4 6 13 28 19 50 7 22 15 47 18 55 3 8 7
20 9 25 1 6 32 96 69 200 37 105 68 195 69 200 2 6 6 17 9 25 3 8 16 44 27 80
12 36 25 74 30 85 9 19 55 151 59 167 3 14 13 43 21 63 9 21 20 53 19 58 0 1
14 40 31 87 18 47 33 90 34 95 4 20 39 120 45 130 3 6 6 15 7 20 2 11 50 149
184 535 45 129 83 240 84 245 2 6 6 18 9 28 4 9 10 25 14 35 3 9 7 22 9 27 1
6 16 48 32 95 17 47 56 159 87 250 31 91 59 172 62 180 3 8 7 20 9 25 3 12 83
244 91 265 4 8 7 17 8 20 7 30 30 88 38 98 5 6 7 12 3 12 -3 0 4 24 15 53 12
28 23 59 25 67 11 45 86 256 96 267 6 7 8 13 5 13 -3 0 4 26 15 58 11 31 21
64 23 72 2 8 10 31 19 51 8 20 12 39 9 43 -4 3 -1 6 5 6 7 0 11 3 10 8 -1 4 6
32 17 62 10 30 20 60 22 65 6 23 83 236 88 245 8 12 97 11 -819 11 -467 0
-772 -3 -778 -9 -5 -5 -10 -16 -12 -23 -3 -18 -145 -448 -156 -474 -5 -11 -21
-58 -36 -105 -15 -47 -31 -91 -37 -97 -5 -7 -7 -13 -4 -13 3 0 -6 -33 -20 -72
-13 -40 -26 -80 -28 -88 -2 -8 -20 -59 -39 -112 -19 -54 -32 -98 -30 -98 3 0
-2 -13 -11 -30 -8 -16 -15 -38 -15 -50 0 -11 -4 -20 -8 -20 -5 0 -9 -6 -9 -12
-1 -13 -67 -217 -80 -248 -3 -8 -7 -17 -8 -20 -1 -3 -8 -25 -15 -50 -7 -25
-14 -47 -15 -50 -1 -3 -7 -18 -14 -34 -6 -16 -13 -36 -15 -45 -2 -9 -6 -23 -9
-31 -9 -21 -69 -201 -72 -214 -2 -11 -7 -25 -28 -81 -7 -16 -12 -32 -12 -35
-1 -6 -24 -80 -32 -100 -3 -8 -7 -19 -9 -25 -5 -22 -126 -381 -134 -400 -5
-11 -23 -65 -40 -120 -17 -55 -35 -109 -40 -120 -9 -20 -102 -302 -106 -320
-1 -5 -13 -41 -27 -80 l-24 -69 -27 74 c-15 41 -37 100 -48 130 -12 30 -24 64
-29 75 -5 11 -45 119 -89 240 -133 361 -181 489 -190 510 -11 26 -23 59 -24
65 -1 3 -6 19 -13 35 -29 74 -76 201 -78 210 -1 6 -9 27 -19 47 -9 21 -16 42
-16 48 0 6 -4 18 -9 28 -5 9 -18 42 -30 72 -64 176 -124 338 -131 355 -5 11
-28 72 -50 135 -23 63 -48 129 -56 147 -8 17 -17 45 -20 62 -4 17 -10 31 -14
31 -3 0 -7 6 -7 13 0 10 -105 296 -133 362 -4 11 -13 36 -20 55 -7 19 -16 44
-20 55 -8 19 -21 54 -25 65 -1 3 -4 12 -8 20 -3 8 -22 60 -42 115 -19 55 -39
109 -44 120 -10 23 -45 118 -46 125 -7 44 -17 50 -76 51 -32 0 -322 0 -644 0
-322 0 -596 0 -609 0 -19 -1 -27 -10 -40 -48 -10 -27 -24 -64 -31 -83 -42
-105 -67 -173 -69 -183 -2 -7 -8 -23 -13 -37 -6 -14 -45 -117 -87 -230 -42
-113 -80 -214 -85 -225 -7 -17 -27 -69 -67 -180 -4 -11 -8 -24 -10 -30 -2 -5
-14 -39 -29 -75 -32 -82 -42 -108 -160 -425 -53 -143 -100 -269 -105 -280 -23
-55 -171 -448 -174 -462 -1 -7 -5 -16 -9 -19 -4 -4 -7 -16 -7 -26 0 -10 -5
-18 -12 -18 -6 0 -9 -3 -5 -6 5 -6 -34 -123 -53 -156 -6 -10 -10 -22 -10 -27
0 -5 -5 -22 -12 -38 -6 -15 -12 -30 -13 -33 -1 -3 -5 -12 -8 -20 -4 -8 -20
-51 -36 -95 -16 -44 -35 -93 -42 -110 -7 -16 -13 -33 -13 -37 -1 -3 -4 -10 -9
-14 -4 -4 -7 -18 -7 -31 0 -12 -4 -23 -10 -23 -5 0 -9 -3 -8 -7 2 -9 -18 -73
-40 -123 -9 -19 -16 -40 -18 -46 -3 -15 -57 -154 -59 -151 -1 1 -14 38 -29 82
-15 44 -30 87 -33 95 -3 8 -7 22 -9 30 -1 8 -48 148 -104 310 -55 162 -102
302 -104 310 -3 8 -11 34 -20 58 -8 23 -16 46 -17 50 -1 4 -3 12 -5 17 -63
186 -101 305 -97 305 3 0 1 6 -4 13 -9 10 -35 78 -38 97 -2 11 -37 116 -45
135 -10 22 -253 754 -256 770 -1 6 -11 35 -22 65 -11 30 -26 75 -34 100 -57
176 -83 251 -99 294 -10 27 -19 56 -19 65 0 10 -4 21 -9 26 -4 6 -14 33 -21
60 -7 28 -16 55 -20 60 -3 6 -26 71 -50 145 -24 74 -47 139 -51 143 -6 8
-1514 16 -1565 9z"/>
<path d="M26220 17121 c0 -3 -19 -6 -42 -5 l-43 1 2 -2711 c0 -1491 2 -2714 2
-2717 2 -11 38 -17 52 -8 7 4 20 4 28 -1 8 -4 25 -4 38 1 13 5 25 4 28 -1 3
-6 15 -6 30 0 15 6 27 6 30 0 4 -6 13 -7 24 -1 10 6 23 6 31 1 8 -5 19 -5 25
0 6 5 17 5 25 0 8 -5 21 -5 30 0 9 5 22 5 29 1 7 -5 30 -5 52 -1 22 4 42 4 44
-1 3 -4 19 -4 35 1 19 5 30 5 30 -1 0 -6 5 -7 11 -3 7 4 25 7 40 6 21 0 29 4
29 16 1 21 1 5335 0 5380 0 25 -6 35 -22 41 -13 5 -25 6 -28 2 -7 -9 -310 -7
-310 2 0 5 -6 5 -12 0 -16 -9 -95 -11 -130 -1 -16 3 -28 3 -28 -1z"/>
</g>
</svg>
