<?xml version="1.0" standalone="no"?>
<svg xmlns:xlink="http://www.w3.org/1999/xlink" id="wave" style="transform:rotate(180deg); transition: 0.3s" viewBox="0 0 1440 290" version="1.1" xmlns="http://www.w3.org/2000/svg"><defs><linearGradient id="sw-gradient-0" x1="0" x2="0" y1="1" y2="0"><stop stop-color="rgba(252, 248, 255, 1)" offset="0%"/><stop stop-color="rgba(252, 248, 255, 1)" offset="100%"/></linearGradient></defs><path style="transform:translate(0, 0px); opacity:1" fill="url(#sw-gradient-0)" d="M0,116L120,96.7C240,77,480,39,720,43.5C960,48,1200,97,1440,120.8C1680,145,1920,145,2160,145C2400,145,2640,145,2880,130.5C3120,116,3360,87,3600,77.3C3840,68,4080,77,4320,106.3C4560,135,4800,184,5040,203C5280,222,5520,213,5760,203C6000,193,6240,184,6480,159.5C6720,135,6960,97,7200,111.2C7440,126,7680,193,7920,188.5C8160,184,8400,106,8640,67.7C8880,29,9120,29,9360,43.5C9600,58,9840,87,10080,82.2C10320,77,10560,39,10800,33.8C11040,29,11280,58,11520,87C11760,116,12000,145,12240,159.5C12480,174,12720,174,12960,145C13200,116,13440,58,13680,67.7C13920,77,14160,155,14400,174C14640,193,14880,155,15120,116C15360,77,15600,39,15840,53.2C16080,68,16320,135,16560,159.5C16800,184,17040,164,17160,154.7L17280,145L17280,290L17160,290C17040,290,16800,290,16560,290C16320,290,16080,290,15840,290C15600,290,15360,290,15120,290C14880,290,14640,290,14400,290C14160,290,13920,290,13680,290C13440,290,13200,290,12960,290C12720,290,12480,290,12240,290C12000,290,11760,290,11520,290C11280,290,11040,290,10800,290C10560,290,10320,290,10080,290C9840,290,9600,290,9360,290C9120,290,8880,290,8640,290C8400,290,8160,290,7920,290C7680,290,7440,290,7200,290C6960,290,6720,290,6480,290C6240,290,6000,290,5760,290C5520,290,5280,290,5040,290C4800,290,4560,290,4320,290C4080,290,3840,290,3600,290C3360,290,3120,290,2880,290C2640,290,2400,290,2160,290C1920,290,1680,290,1440,290C1200,290,960,290,720,290C480,290,240,290,120,290L0,290Z"/></svg>